<?xml version="1.0" encoding="utf-8"?>
<!-- Generator: Adobe Illustrator 15.0.0, SVG Export Plug-In . SVG Version: 6.00 Build 0)  -->
<!DOCTYPE svg PUBLIC "-//W3C//DTD SVG 1.1//EN" "http://www.w3.org/Graphics/SVG/1.1/DTD/svg11.dtd">
<svg version="1.1" id="图层_1" xmlns="http://www.w3.org/2000/svg" xmlns:xlink="http://www.w3.org/1999/xlink" x="0px" y="0px"
	 width="100px" height="48.667px" viewBox="0 0 100 48.667" enable-background="new 0 0 100 48.667" xml:space="preserve">
<g>
	<path fill-rule="evenodd" clip-rule="evenodd" fill="#050505" d="M22.713,20.398c-5.269,5.485-11.804,9.707-18.852,13.412
		c3.739-0.678,8.284-1.781,12.194-2.625c1.435-0.31,2.939-0.399,4.032-0.846c0.917-0.374,1.589-1.518,2.814-0.562
		c5.55-1.203,11.14-2.866,17.634-2.814c0.597-3.248-1.014-8.702,1.5-10.036c-0.173-0.45-0.496-0.755-0.75-1.125
		c-0.485,0.32-1.03,0.624-1.594,0.188c-0.396-0.914,0.29-2.559,1.125-2.626c0.726-0.058,1.472,0.913,1.971,1.5
		c0.538,0.638,1.331,1.788,1.031,2.72c-0.227,0.706-0.928,0.536-1.313,1.22c-0.483,0.853-0.188,3.132-0.188,4.501
		c0,1.763-0.267,3.437,0.47,4.221c0.557-0.454,0.583-1.372,0.844-2.251c0.441-1.5,0.815-2.869,1.125-4.877
		c0.155-1.012,0.127-2.666,1.594-2.063c0.542,1.018,0.131,2.352-0.094,3.564c-0.435,2.342-0.967,4.324-1.781,6.565
		c-0.455,1.251-0.856,2.982-2.439,2.906c-4.96,3.076-10.468,5.602-16.882,7.222c-1.143,2.139-2.751,4.191-4.877,5.91
		c-2.011,1.628-4.459,3.813-7.128,4.126c-1.087,0.13-2.019-0.063-2.533-0.843c-0.531-0.808-0.801-2.916,0-3.189
		c1.806-0.617,0.868,1.791,1.595,2.344c2.709-0.294,4.663-1.914,6.379-3.282c1.783-1.423,3.403-3.066,4.595-5.066
		c-2.918-0.513-5.08-2.701-4.407-6.19c-2.393,0.484-4.914,1.049-7.41,1.595c-2.505,0.549-5.014,1.387-7.41,1.594
		c-1.177,0.104-3.806,0.366-3.846-1.031c-0.042-1.493,4.658-3.207,5.721-3.753c5.319-2.733,9.337-5.862,13.694-9.752
		c0.876-0.782,2.213-1.705,2.345-2.345c0.117-0.576-0.398-2.064-0.564-3.096c-0.476-2.984-0.244-7.31-0.375-10.411
		c-0.044-1.062-0.419-2.226,0.938-2.343c-0.746-0.908-1.282-2.587,0.656-2.346c2.087,0.262,4.35,2.837,3.471,5.91
		c-0.332,1.156-1.455,2.173-1.406,2.908c0.035,0.555,0.991,0.831,1.218,1.407c0.263,0.664,0.027,1.453-0.187,2.156
		c-0.178,0.587-0.681,1.304-0.657,1.876c0.036,0.83,0.801,1.009,0.564,2.063c-0.16,0.713-0.857,1.102-1.313,1.97
		C23.848,19.501,23.884,20.741,22.713,20.398z M24.026,3.891c-0.068,0.213-0.282,0.28-0.467,0.376
		c-0.476,0.098-0.537-0.215-0.938-0.188c0.062,1.625-0.126,3.502,0.093,4.971C23.303,7.63,25.165,5.83,24.026,3.891z M22.901,13.833
		c0.179-0.353,0.01-1.054,0.187-1.408c-0.093,0-0.187,0-0.282,0C22.686,12.576,22.845,14.751,22.901,13.833z M23.183,31.466
		c0.872,1.724,2.948,2.24,2.534,5.254c5.657-1.659,10.706-3.926,15.286-6.662c-0.153-0.409-0.13-0.993-0.28-1.406
		C33.979,28.694,28.765,30.266,23.183,31.466z M21.495,31.842c-0.094,0-0.188,0-0.282,0c-2.014,1.811-0.138,5.218,2.626,5.063
		C24.747,34.248,21.849,33.855,21.495,31.842z"/>
	<path fill-rule="evenodd" clip-rule="evenodd" fill="#050505" d="M78.52,3.141c0.666,2.242,0.134,5.52-0.843,7.035
		c0.135,0.208,0.234,0.452,0.186,0.844c0.558-0.381,1.262-1.731,2.628-1.125c0.425,0.188,0.913,1.207,1.032,1.875
		c0.359,2.041-0.068,4.883-0.188,7.503c-0.179,3.911,0.023,7.655,0.372,10.412c6.352-2.32,10.299-6.976,15.29-11.069
		c0.572-0.47,2.818-2.417,3-0.655c0.075,0.703-1.239,1.455-1.971,2.062c-4.834,4.029-9.7,9.287-16.131,11.442
		c0.492,2.269,0.078,5.066,0.657,7.41c0.094,0.379,0.396,0.643,0.469,1.032c0.088,0.456-0.033,1.364,0,1.969
		c0.068,1.223,1.015,3.933-0.561,3.846c-1.106-0.06-1.225-2.587-1.314-3.283c-0.445-3.42-0.508-7.179-0.938-10.504
		c-6.237,0.212,0.053-6.735-1.783-9.941c-0.32,1.031-0.37,2.731-0.655,4.407c-0.303,1.755-0.531,4.44-2.627,3.563
		c-0.841-2.284-0.102-5.716-0.096-8.347c-0.673-0.232-1.462-0.349-2.156-0.562c-0.461,1.105-0.843,2.211-1.406,3.47
		c-0.381,0.851-0.949,2.833-2.157,2.626c-1.515-0.261-0.345-5.449-0.279-6.846c0.101-2.267-0.019-4.058,0.185-6.189
		c-0.545,0.558-1.176,1.548-1.875,2.53c-0.469,0.657-1.156,2.454-2.158,2.345c-1.77-0.192,0.577-3.502,0.938-4.22
		c0.683-1.359,1.134-2.489,1.597-3.563c0.06-0.498-0.332-0.545-0.284-1.032c0.093-1.248,2.495-1.882,2.16,0.187
		c0.231,0.151,0.898-0.3,1.313,0c0.866,1.082,0.117,2.571,0,3.94c-0.211,2.415-0.079,5.131-0.281,7.597
		c0.625-0.976,1.038-4.016,2.628-3.752c0.544,0.091,0.805,0.688,0.656,1.406c0.385,0.113,0.815,0.187,1.218,0.282
		c0.13-2.561,0.436-4.941,0.936-7.127c-0.778,0.268-2.442,3.09-4.032,2.813c-2.021-0.352,0.482-3.384,1.128-3.751
		c0.578-0.903,2.037-1.232,2.813-2.064c1.188-1.274,1.237-3.908,0.748-6.002C76.86,3.064,77.884,2.686,78.52,3.141z M78.426,20.117
		c0.359,0.045,1.035,0.675,1.126,0.376c0.178-2.706,0.451-5.792,0.188-8.629c-0.021-0.073-0.078-0.109-0.188-0.094
		C78.713,14.089,78.908,17.445,78.426,20.117z M79.083,30.153c0.172,0.142,0.765,0.142,0.938,0
		c-0.107-0.893-0.146-1.856-0.377-2.626C79.42,28.366,79.087,29.094,79.083,30.153z"/>
	<path fill-rule="evenodd" clip-rule="evenodd" fill="#050505" d="M48.506,35.125c0.256,0.399,0.794,0.345,0.938,0.842
		c0.189,0.666-0.39,1.895-0.564,2.721c-0.171,0.821-0.219,2.091-1.031,2.156c-1.513,0.124-1.032-3.344-1.032-4.783
		c0-9.121,0.927-17.857,3.284-24.198c-1.166,0.243-2.236,0.58-3.565,0.657c-0.131,2.275-2.846,0.524-2.815-0.657
		c0.034-1.165,3.171-1,4.597-1.313c1.779-0.391,3.177-1.064,4.221-1.688c0.502-0.301,1.266-0.173,1.407,0.375
		c0.262,1.024-0.87,1.203-1.313,1.689c-1.019,1.116-1.521,3.38-1.97,5.159C49.266,21.603,48.343,28.387,48.506,35.125z"/>
	<path fill-rule="evenodd" clip-rule="evenodd" fill="#050505" d="M56.104,16.272c0.248-0.071,1.269-0.18,1.595,0.188
		c0.788,1.95-0.804,3.523-1.22,5.158c2.25-0.804,3.022,1.219,3.094,3.189c0.756-0.093,2.358-0.41,3.002,0.281
		c0.248,0.569,0.42,1.597,0.188,2.344c-0.374,0.365-0.968,0.446-1.406,0.095c-0.208-0.229-0.204-0.669-0.187-1.126
		c-0.677-0.08-1.013,0.176-1.5,0.282c-0.117,2.706-1.5,6.717-4.41,6.095c-0.638-0.135-1.38-1.107-1.499-1.78
		c-0.536-2.954,2.352-4.364,4.124-5.44c0.059-0.996-0.11-1.764-0.467-2.346c-0.876,0.295-2.37,0.662-2.719-0.375
		c-0.11,0.755-1.041,1.25-1.691,0.657c-0.242-2.474,1.767-4.964,1.408-7.973c-0.058-0.49-0.49-0.967-0.28-1.595
		C55.312,12.438,56.568,14.397,56.104,16.272z M55.728,31.09c1.371-0.474,1.775-1.916,2.156-3.376
		c-0.02-0.071-0.075-0.109-0.186-0.095C56.768,28.379,54.76,29.347,55.728,31.09z"/>
</g>
</svg>
